{
    "asset" : {
        "generator" : "Khronos glTF Blender I/O v3.3.27",
        "version" : "2.0"
    },
    "scene" : 0,
    "scenes" : [
        {
            "name" : "Scene",
            "nodes" : [
                4
            ]
        }
    ],
    "nodes" : [
        {
            "mesh" : 0,
            "name" : "Cube.001_Material_0",
            "scale" : [
                0.007000000216066837,
                0.007000000216066837,
                0.007000000216066837
            ]
        },
        {
            "children" : [
                0
            ],
            "name" : "Cube.001",
            "rotation" : [
                -0.7071068286895752,
                0,
                0,
                0.7071067094802856
            ],
            "scale" : [
                100,
                99.99999237060547,
                99.99999237060547
            ]
        },
        {
            "children" : [
                1
            ],
            "name" : "RootNode"
        },
        {
            "children" : [
                2
            ],
            "name" : "17e3835eaf0142dab4ad9bb8ff1b227f.fbx",
            "rotation" : [
                0.7071068286895752,
                0,
                0,
                0.7071067094802856
            ]
        },
        {
            "children" : [
                3
            ],
            "name" : "Sketchfab_model",
            "rotation" : [
                -0.7071068286895752,
                0,
                0,
                0.7071067094802856
            ]
        }
    ],
    "materials" : [
        {
            "doubleSided" : true,
            "name" : "Material.001",
            "normalTexture" : {
                "index" : 0
            },
            "occlusionTexture" : {
                "index" : 1
            },
            "pbrMetallicRoughness" : {
                "baseColorTexture" : {
                    "index" : 2
                },
                "metallicFactor" : 0,
                "metallicRoughnessTexture" : {
                    "index" : 1
                }
            }
        }
    ],
    "meshes" : [
        {
            "name" : "Cube.001_Material_0",
            "primitives" : [
                {
                    "attributes" : {
                        "POSITION" : 0,
                        "NORMAL" : 1,
                        "TANGENT" : 2,
                        "TEXCOORD_0" : 3
                    },
                    "indices" : 4,
                    "material" : 0
                }
            ]
        }
    ],
    "textures" : [
        {
            "sampler" : 0,
            "source" : 0
        },
        {
            "sampler" : 0,
            "source" : 1
        },
        {
            "sampler" : 0,
            "source" : 2
        }
    ],
    "images" : [
        {
            "mimeType" : "image/png",
            "name" : "Material_normal",
            "uri" : "textures/Material_normal.png"
        },
        {
            "mimeType" : "image/png",
            "name" : "Material_metallicRoughness",
            "uri" : "textures/Material_metallicRoughness.png"
        },
        {
            "mimeType" : "image/png",
            "name" : "Material_baseColor",
            "uri" : "textures/Material_baseColor.png"
        }
    ],
    "accessors" : [
        {
            "bufferView" : 0,
            "componentType" : 5126,
            "count" : 76,
            "max" : [
                1.0032732486724854,
                0.9961605072021484,
                0.9940490126609802
            ],
            "min" : [
                -1.007616639137268,
                -1.0100809335708618,
                -1.0115195512771606
            ],
            "type" : "VEC3"
        },
        {
            "bufferView" : 1,
            "componentType" : 5126,
            "count" : 76,
            "type" : "VEC3"
        },
        {
            "bufferView" : 2,
            "componentType" : 5126,
            "count" : 76,
            "type" : "VEC4"
        },
        {
            "bufferView" : 3,
            "componentType" : 5126,
            "count" : 76,
            "type" : "VEC2"
        },
        {
            "bufferView" : 4,
            "componentType" : 5123,
            "count" : 324,
            "type" : "SCALAR"
        }
    ],
    "bufferViews" : [
        {
            "buffer" : 0,
            "byteLength" : 912,
            "byteOffset" : 0,
            "target" : 34962
        },
        {
            "buffer" : 0,
            "byteLength" : 912,
            "byteOffset" : 912,
            "target" : 34962
        },
        {
            "buffer" : 0,
            "byteLength" : 1216,
            "byteOffset" : 1824,
            "target" : 34962
        },
        {
            "buffer" : 0,
            "byteLength" : 608,
            "byteOffset" : 3040,
            "target" : 34962
        },
        {
            "buffer" : 0,
            "byteLength" : 648,
            "byteOffset" : 3648,
            "target" : 34963
        }
    ],
    "samplers" : [
        {
            "magFilter" : 9729,
            "minFilter" : 9987
        }
    ],
    "buffers" : [
        {
            "byteLength" : 4296,
            "uri" : "stone_cube.bin"
        }
    ]
}
